<svg class="diagram-root" style="background: #f5f6f6" xmlns="http://www.w3.org/2000/svg" xmlns:xlink="http://www.w3.org/1999/xlink"><style>.diagram-root { font-family: "Helvetica Neue", sans-serif; font-size: 12px; } .t { overflow: visible; } .t-bg { y: 40; fill: #fff;   } .th { fill: #005aa0;   } .tht { fill: #fff; font-size: 14px;  } .tf { fill: #323c46; overflow: visible; } .tf.pk { fill: #005aa0; font-weight: bold; } .tf.fk { font-weight: bold; } .ty { fill: #adb1b5; font-weight: normal; text-anchor: end; } .r { fill: transparent; stroke: #c3c3c3; stroke-width: 1; } .l { stroke: 1; } .i { fill: #c2c7ce; stroke: #c2c7ce; } .i.ix { fill: #afb3b6; stroke: #000; } .fa { fill: transparent; overflow: visible; } .fa .bg.hover { fill: #f7f7f7; } .c { cy: 12; r: 4; stroke: #d2d2dc; fill: #d2d2dc; } .hr { fill: transparent; stroke: #323c46; stroke-opacity: 0.035; stroke-width: 13; } .dc { stroke: #fa5a3c; fill: #fa5a3c; } .x { stroke: white; stroke-width: 1; } .hl .th { fill: #1b9bff; } .hl .tht {  } .fhl .bg { fill: #e7f4ff; } .fhls .bg {  } .r.hl { stroke: #1b9bff; } .dim { opacity: 0.25; }</style><g class="drawing-wrapper" transform="translate(2, 18) scale(1,1)"><g class="rs"><path d="M 183.17 214 m -1, 0 a 1,1 0 1,0 2,0 a 1,1 0 1,0 -2,0 M 183.17 214 m -0.5, 0 a 0.5,0.5 0 1,0 1,0 a 0.5,0.5 0 1,0 -1,0  M183.17 214 L183.17 214 195.17 214 M 183.17 220 m -1, 0 a 1,1 0 1,0 2,0 a 1,1 0 1,0 -2,0 M 183.17 220 m -0.5, 0 a 0.5,0.5 0 1,0 1,0 a 0.5,0.5 0 1,0 -1,0  M183.17 220 L183.17 220 190.17 214 183.17 208 M 183.17 208 m -1, 0 a 1,1 0 1,0 2,0 a 1,1 0 1,0 -2,0 M 183.17 208 m -0.5, 0 a 0.5,0.5 0 1,0 1,0 a 0.5,0.5 0 1,0 -1,0  M195.17 214 Q 212.38 214, 229.58 215 T 264 216 M 276 216 m -1, 0 a 1,1 0 1,0 2,0 a 1,1 0 1,0 -2,0 M 276 216 m -0.5, 0 a 0.5,0.5 0 1,0 1,0 a 0.5,0.5 0 1,0 -1,0  M276 216 L276 216 264 216 M270 222 L270 222 270 210" id="h1139284389" class="r"></path><path d="M 36 239 m -1, 0 a 1,1 0 1,0 2,0 a 1,1 0 1,0 -2,0 M 36 239 m -0.5, 0 a 0.5,0.5 0 1,0 1,0 a 0.5,0.5 0 1,0 -1,0  M36 239 L36 239 24 239 M 36 245 m -1, 0 a 1,1 0 1,0 2,0 a 1,1 0 1,0 -2,0 M 36 245 m -0.5, 0 a 0.5,0.5 0 1,0 1,0 a 0.5,0.5 0 1,0 -1,0  M36 245 L36 245 29 239 36 233 M 36 233 m -1, 0 a 1,1 0 1,0 2,0 a 1,1 0 1,0 -2,0 M 36 233 m -0.5, 0 a 0.5,0.5 0 1,0 1,0 a 0.5,0.5 0 1,0 -1,0  M24 239 C -35.6 239, -32 87, 18 87 M 30 87 m -1, 0 a 1,1 0 1,0 2,0 a 1,1 0 1,0 -2,0 M 30 87 m -0.5, 0 a 0.5,0.5 0 1,0 1,0 a 0.5,0.5 0 1,0 -1,0  M30 87 L30 87 18 87 M24 93 L24 93 24 81" id="h1607168654" class="r"></path><path d="M 536 90.5 m -1, 0 a 1,1 0 1,0 2,0 a 1,1 0 1,0 -2,0 M 536 90.5 m -0.5, 0 a 0.5,0.5 0 1,0 1,0 a 0.5,0.5 0 1,0 -1,0  M536 90.5 L536 90.5 524 90.5 M 536 96.5 m -1, 0 a 1,1 0 1,0 2,0 a 1,1 0 1,0 -2,0 M 536 96.5 m -0.5, 0 a 0.5,0.5 0 1,0 1,0 a 0.5,0.5 0 1,0 -1,0  M536 96.5 L536 96.5 529 90.5 536 84.5 M 536 84.5 m -1, 0 a 1,1 0 1,0 2,0 a 1,1 0 1,0 -2,0 M 536 84.5 m -0.5, 0 a 0.5,0.5 0 1,0 1,0 a 0.5,0.5 0 1,0 -1,0  M524 90.5 Q 445.29 90.5, 366.59 88.75 T 209.17 87 M 197.17 87 m -1, 0 a 1,1 0 1,0 2,0 a 1,1 0 1,0 -2,0 M 197.17 87 m -0.5, 0 a 0.5,0.5 0 1,0 1,0 a 0.5,0.5 0 1,0 -1,0  M197.17 87 L197.17 87 209.17 87 M203.17 93 L203.17 93 203.17 81" id="h1397587031" class="r"></path><path d="M 536 115.5 m -1, 0 a 1,1 0 1,0 2,0 a 1,1 0 1,0 -2,0 M 536 115.5 m -0.5, 0 a 0.5,0.5 0 1,0 1,0 a 0.5,0.5 0 1,0 -1,0  M536 115.5 L536 115.5 524 115.5 M 536 121.5 m -1, 0 a 1,1 0 1,0 2,0 a 1,1 0 1,0 -2,0 M 536 121.5 m -0.5, 0 a 0.5,0.5 0 1,0 1,0 a 0.5,0.5 0 1,0 -1,0  M536 121.5 L536 121.5 529 115.5 536 109.5 M 536 109.5 m -1, 0 a 1,1 0 1,0 2,0 a 1,1 0 1,0 -2,0 M 536 109.5 m -0.5, 0 a 0.5,0.5 0 1,0 1,0 a 0.5,0.5 0 1,0 -1,0  M524 115.5 Q 504.96 115.5, 485.91 165.75 T 447.81 216 M 435.81 216 m -1, 0 a 1,1 0 1,0 2,0 a 1,1 0 1,0 -2,0 M 435.81 216 m -0.5, 0 a 0.5,0.5 0 1,0 1,0 a 0.5,0.5 0 1,0 -1,0  M435.81 216 L435.81 216 447.81 216 M441.81 222 L441.81 222 441.81 210" id="h2286254435" class="r"></path><path d="M 542.5 430.75 m -1, 0 a 1,1 0 1,0 2,0 a 1,1 0 1,0 -2,0 M 542.5 430.75 m -0.5, 0 a 0.5,0.5 0 1,0 1,0 a 0.5,0.5 0 1,0 -1,0  M542.5 430.75 L542.5 430.75 530.5 430.75 M 542.5 436.75 m -1, 0 a 1,1 0 1,0 2,0 a 1,1 0 1,0 -2,0 M 542.5 436.75 m -0.5, 0 a 0.5,0.5 0 1,0 1,0 a 0.5,0.5 0 1,0 -1,0  M542.5 436.75 L542.5 436.75 535.5 430.75 542.5 424.75 M 542.5 424.75 m -1, 0 a 1,1 0 1,0 2,0 a 1,1 0 1,0 -2,0 M 542.5 424.75 m -0.5, 0 a 0.5,0.5 0 1,0 1,0 a 0.5,0.5 0 1,0 -1,0  M530.5 430.75 Q 509.83 430.75, 489.16 323.38 T 447.81 216 M 435.81 216 m -1, 0 a 1,1 0 1,0 2,0 a 1,1 0 1,0 -2,0 M 435.81 216 m -0.5, 0 a 0.5,0.5 0 1,0 1,0 a 0.5,0.5 0 1,0 -1,0  M435.81 216 L435.81 216 447.81 216 M441.81 222 L441.81 222 441.81 210" id="h3177548053" class="r"></path><path d="M 540 254.5 m -1, 0 a 1,1 0 1,0 2,0 a 1,1 0 1,0 -2,0 M 540 254.5 m -0.5, 0 a 0.5,0.5 0 1,0 1,0 a 0.5,0.5 0 1,0 -1,0  M540 254.5 L540 254.5 528 254.5 M 540 260.5 m -1, 0 a 1,1 0 1,0 2,0 a 1,1 0 1,0 -2,0 M 540 260.5 m -0.5, 0 a 0.5,0.5 0 1,0 1,0 a 0.5,0.5 0 1,0 -1,0  M540 260.5 L540 260.5 533 254.5 540 248.5 M 540 248.5 m -1, 0 a 1,1 0 1,0 2,0 a 1,1 0 1,0 -2,0 M 540 248.5 m -0.5, 0 a 0.5,0.5 0 1,0 1,0 a 0.5,0.5 0 1,0 -1,0  M528 254.5 Q 507.96 254.5, 487.91 235.25 T 447.81 216 M 435.81 216 m -1, 0 a 1,1 0 1,0 2,0 a 1,1 0 1,0 -2,0 M 435.81 216 m -0.5, 0 a 0.5,0.5 0 1,0 1,0 a 0.5,0.5 0 1,0 -1,0  M435.81 216 L435.81 216 447.81 216 M441.81 222 L441.81 222 441.81 210" id="h3000826536" class="r"></path></g><g class="hrs"></g><g class="ts"><svg width="167.17" height="100" x="30" y="30" id="h475896179" class="t"><rect height="40" width="167.17" class="th"></rect><text x="13" y="25" class="tht">departments</text><rect height="60" width="167.17" class="t-bg"></rect><text x="13" y="61" class="tf pk">dept_no<tspan x="154.17" class="ty">VARCHAR</tspan></text><path d="M7,14A2,2 0 0,1 5,12A2,2 0 0,1 7,10A2,2 0 0,1 9,12A2,2 0 0,1 7,14M12.65,10C11.83,7.67 9.61,6 7, 6A6, 6 0 0, 0 1, 12A6, 6 0 0, 0 7, 18C9.61, 18 11.83, 16.33 12.65, 14H17V18H21V14H23V10H12.65Z" class="i pk" transform="translate(76.37898437499999, 48) scale(0.65)"></path><text x="13" y="86" class="tf">dept_name<tspan x="154.17" class="ty">VARCHAR</tspan></text></svg><svg width="147.17" height="150" x="36" y="157" id="h1090417462" class="t"><rect height="40" width="147.17" class="th"></rect><text x="13" y="25" class="tht">dept_emp</text><rect height="110" width="147.17" class="t-bg"></rect><text x="13" y="61" class="tf fk">emp_no<tspan x="134.17" class="ty">INT</tspan></text><text x="13" y="86" class="tf fk">dept_no<tspan x="134.17" class="ty">VARCHAR</tspan></text><text x="13" y="111" class="tf">from_date<tspan x="134.17" class="ty">DATE</tspan></text><text x="13" y="136" class="tf">to_date<tspan x="134.17" class="ty">DATE</tspan></text></svg><svg width="147.17" height="150" x="536" y="33.5" id="h1676682957" class="t"><rect height="40" width="147.17" class="th"></rect><text x="13" y="25" class="tht">dept_manager</text><rect height="110" width="147.17" class="t-bg"></rect><text x="13" y="61" class="tf fk">dept_no<tspan x="134.17" class="ty">VARCHAR</tspan></text><text x="13" y="86" class="tf fk">emp_no<tspan x="134.17" class="ty">INT</tspan></text><text x="13" y="111" class="tf">from_date<tspan x="134.17" class="ty">DATE</tspan></text><text x="13" y="136" class="tf">to_date<tspan x="134.17" class="ty">DATE</tspan></text></svg><svg width="159.81" height="200" x="276" y="159" id="h1639608377" class="t"><rect height="40" width="159.81" class="th"></rect><text x="13" y="25" class="tht">employees</text><rect height="160" width="159.81" class="t-bg"></rect><text x="13" y="61" class="tf pk">emp_no<tspan x="146.81" class="ty">INT</tspan></text><path d="M7,14A2,2 0 0,1 5,12A2,2 0 0,1 7,10A2,2 0 0,1 9,12A2,2 0 0,1 7,14M12.65,10C11.83,7.67 9.61,6 7, 6A6, 6 0 0, 0 1, 12A6, 6 0 0, 0 7, 18C9.61, 18 11.83, 16.33 12.65, 14H17V18H21V14H23V10H12.65Z" class="i pk" transform="translate(107.479921875, 48) scale(0.65)"></path><text x="13" y="86" class="tf">birth_date<tspan x="146.81" class="ty">DATE</tspan></text><text x="13" y="111" class="tf">first_name<tspan x="146.81" class="ty">VARCHAR</tspan></text><text x="13" y="136" class="tf">last_name<tspan x="146.81" class="ty">VARCHAR</tspan></text><text x="13" y="161" class="tf">gender<tspan x="146.81" class="ty">VARCHAR</tspan></text><text x="13" y="186" class="tf">hire_date<tspan x="146.81" class="ty">DATE</tspan></text></svg><svg width="131.15" height="150" x="542.5" y="373.75" id="h2472833127" class="t"><rect height="40" width="131.15" class="th"></rect><text x="13" y="25" class="tht">salaries</text><rect height="110" width="131.15" class="t-bg"></rect><text x="13" y="61" class="tf fk">emp_no<tspan x="118.15" class="ty">INT</tspan></text><text x="13" y="86" class="tf">salary<tspan x="118.15" class="ty">INT</tspan></text><text x="13" y="111" class="tf">from_date<tspan x="118.15" class="ty">DATE</tspan></text><text x="13" y="136" class="tf">to_date<tspan x="118.15" class="ty">DATE</tspan></text></svg><svg width="131.15" height="150" x="540" y="197.5" id="h311790747" class="t"><rect height="40" width="131.15" class="th"></rect><text x="13" y="25" class="tht">titles</text><rect height="110" width="131.15" class="t-bg"></rect><text x="13" y="61" class="tf fk">emp_no<tspan x="118.15" class="ty">INT</tspan></text><text x="13" y="86" class="tf">title<tspan x="118.15" class="ty">VARCHAR</tspan></text><text x="13" y="111" class="tf">from_date<tspan x="118.15" class="ty">DATE</tspan></text><text x="13" y="136" class="tf">to_date<tspan x="118.15" class="ty">DATE</tspan></text></svg></g></g><text class="qdbd-link" x="10" y="20">www.quickdatabasediagrams.com</text></svg>